<svg xmlns="http://www.w3.org/2000/svg" width="20" height="20" viewBox="0 0 20 20" fill="none">
  <path d="M18.0883 4.40917L15.5892 1.91084C15.4329 1.75455 15.221 1.66672 15 1.66667H5C4.77901 1.66672 4.56708 1.75455 4.41084 1.91084L1.91167 4.40917C1.83403 4.48657 1.77243 4.57852 1.73039 4.67976C1.68834 4.781 1.66669 4.88955 1.66667 4.99917V15.8333C1.66667 16.7525 2.41417 17.5 3.33333 17.5H16.6667C17.5858 17.5 18.3333 16.7525 18.3333 15.8333V4.99917C18.3333 4.88955 18.3117 4.781 18.2696 4.67976C18.2276 4.57852 18.166 4.48657 18.0883 4.40917ZM5.345 3.33334H14.655L15.4875 4.16584H4.5125L5.345 3.33334ZM3.33333 15.8333V5.83251H16.6667L16.6683 15.8333H3.33333Z" fill="#0760FB"/>
  <path d="M12.5 9.99999H7.5V8.33333H5.83333V11.6667H14.1667V8.33333H12.5V9.99999Z" fill="#0760FB"/>
  <path d="M14.5 3H5.5L4 4.5H16L14.5 3Z" fill="#0760FB"/>
</svg>