<svg xmlns="http://www.w3.org/2000/svg" width="147" height="76" viewBox="0 0 147 76" fill="none">
  <path d="M63.0853 1.98693C63.0853 0.889578 62.1958 0 61.0984 0C60.0011 0 59.1115 0.889578 59.1115 1.98693V17.8824C59.1115 18.9797 60.0011 19.8693 61.0984 19.8693H89.6605C90.7578 19.8693 91.6474 18.9797 91.6474 17.8824C91.6474 16.785 90.7578 15.8954 89.6605 15.8954H63.0853V1.98693Z" fill="#00050E"/>
  <path fill-rule="evenodd" clip-rule="evenodd" d="M43.216 20.6144C43.216 30.902 34.8763 39.2418 24.5886 39.2418C14.3009 39.2418 5.96115 30.902 5.96115 20.6144C5.96115 10.3267 14.3009 1.98693 24.5886 1.98693C34.8763 1.98693 43.216 10.3267 43.216 20.6144ZM39.2422 20.6144C39.2422 28.7073 32.6816 35.268 24.5886 35.268C16.4956 35.268 9.935 28.7073 9.935 20.6144C9.935 12.5214 16.4956 5.96078 24.5886 5.96078C32.6816 5.96078 39.2422 12.5214 39.2422 20.6144Z" fill="#00050E"/>
  <path d="M27.3206 44.2092C27.3206 43.1118 26.431 42.2222 25.3337 42.2222C24.2363 42.2222 23.3468 43.1118 23.3468 44.2092V65.1368C16.8499 65.2762 9.80717 64.6413 2.32204 63.3617C1.24038 63.1768 0.213628 63.9038 0.0287284 64.9855C-0.156171 66.0671 0.570798 67.0939 1.65246 67.2788C16.3298 69.7877 29.784 69.957 41.0108 66.4728C51.9598 63.0749 60.703 56.2241 66.3193 44.9542H91.1507V55.634H65.0723C63.9749 55.634 63.0853 56.5236 63.0853 57.6209V73.7647C63.0853 74.8621 63.9749 75.7516 65.0723 75.7516H144.301C145.398 75.7516 146.288 74.8621 146.288 73.7647C146.288 72.6674 145.398 71.7778 144.301 71.7778H67.0592V59.6078H93.1376C94.235 59.6078 95.1245 58.7183 95.1245 57.6209V42.9673C95.1245 41.87 94.235 40.9804 93.1376 40.9804H65.1166C64.7262 40.9719 64.3424 41.0793 64.0147 41.2849C63.7699 41.4385 63.5563 41.6468 63.3945 41.9025C63.3416 41.9856 63.2947 42.0729 63.2545 42.1638C58.1607 53.0372 50.1138 59.4869 39.833 62.6775C35.9764 63.8744 31.793 64.6157 27.3206 64.9487V44.2092Z" fill="#00050E"/>
  <path d="M114.719 19.7873C115.587 20.4582 115.747 21.7061 115.076 22.5744C112.651 25.7126 109.008 27.9226 104.65 29.4718C100.285 31.0235 95.0652 31.9614 89.3062 32.4663C77.7926 33.4757 63.8021 32.7786 49.5014 31.535C48.4082 31.44 47.599 30.4767 47.6941 29.3834C47.7892 28.2902 48.7525 27.481 49.8457 27.5761C64.1071 28.8162 77.8094 29.4851 88.9592 28.5076C94.532 28.019 99.3869 27.1252 103.319 25.7275C107.257 24.3274 110.134 22.4704 111.931 20.1446C112.602 19.2763 113.85 19.1163 114.719 19.7873Z" fill="#00050E"/>
  <path fill-rule="evenodd" clip-rule="evenodd" d="M140.677 34.2157C141.67 34.6835 142.096 35.8674 141.628 36.8601L131.445 58.4679C131.169 59.0531 130.626 59.4673 129.988 59.5784C129.351 59.6894 128.7 59.4833 128.242 59.0259L121.288 52.0716C120.512 51.2957 120.512 50.0376 121.288 49.2617C122.064 48.4858 123.322 48.4858 124.098 49.2617L129.055 54.2181L138.033 35.166C138.501 34.1734 139.685 33.7479 140.677 34.2157Z" fill="#0760FB"/>
  <path d="M116.732 40.4837C115.909 40.4837 115.242 41.1508 115.242 41.9739V65.817C115.242 66.64 115.909 67.3072 116.732 67.3072H144.549C145.372 67.3072 146.04 66.64 146.04 65.817V41.9739C146.04 41.1508 145.372 40.4837 144.549 40.4837H142.811C141.988 40.4837 141.321 41.1508 141.321 41.9739C141.321 42.7969 141.988 43.4641 142.811 43.4641H143.059V64.3268H118.223V43.4641H125.674C126.497 43.4641 127.164 42.7969 127.164 41.9739C127.164 41.1508 126.497 40.4837 125.674 40.4837H116.732Z" fill="#979797"/>
  <path d="M129.772 43.4641C130.595 43.4641 131.262 42.7969 131.262 41.9739C131.262 41.1508 130.595 40.4837 129.772 40.4837C128.949 40.4837 128.281 41.1508 128.281 41.9739C128.281 42.7969 128.949 43.4641 129.772 43.4641Z" fill="#979797"/>
</svg>